# xmcd
#
# Track frame offsets: 
#        150
#        65534
#        86308
#        129371
#        154478
#        178524
#        222232
#
# Disc length: 3686 seconds
#
# Revision: 0
# Processed by: cddbd v1.5.2PL0 Copyright (c) Steve Scherf et al.
# Submitted via: ExactAudioCopy v0.95b4
#
DISCID=5a0e6407
DTITLE=Godsmack - 2006-09-07-Tweeter Center-Mansfield, MA [CD1]
DYEAR=2006
DGENRE=Blues
TTITLE0=Straight Out Of Line/Speak
TTITLE1=The Enemy
TTITLE2=Livin in Sin/Moon Baby
TTITLE3=Re-Align
TTITLE4=Awake
TTITLE5=Trippin
TTITLE6=Vampires/Keep Away
EXTD=
EXTT0=
EXTT1=
EXTT2=
EXTT3=
EXTT4=
EXTT5=
EXTT6=
PLAYORDER=
